<svg xmlns="http://www.w3.org/2000/svg" xmlns:xlink="http://www.w3.org/1999/xlink" width="500" zoomAndPan="magnify" viewBox="0 0 375 374.999991" height="500" preserveAspectRatio="xMidYMid meet" version="1.0"><defs><clipPath id="dcc43d8f50"><path d="M 3 3.410156 L 370 3.410156 L 370 370 L 3 370 Z M 3 3.410156 " clip-rule="nonzero"/></clipPath></defs><g clip-path="url(#dcc43d8f50)"><path fill="#304b94" d="M 60.195312 212.871094 C 59.3125 208.582031 58.636719 204.238281 58.195312 199.894531 C 57.738281 195.445312 57.511719 191.054688 57.511719 186.757812 C 57.511719 171.519531 60.214844 156.5 65.382812 142.367188 C 70.554688 128.238281 78.179688 115.007812 88.035156 103.355469 L 95.117188 109.351562 C 85.96875 120.175781 78.894531 132.441406 74.101562 145.53125 C 69.316406 158.617188 66.808594 172.5625 66.808594 186.757812 C 66.808594 190.914062 67.015625 194.984375 67.417969 198.945312 C 67.832031 203.007812 68.453125 207.035156 69.277344 211.019531 Z M 77.628906 295.898438 C 57.023438 275.292969 43.097656 249.761719 36.617188 222.46875 C 30.121094 195.183594 31.070312 166.125 40.191406 138.457031 L 54.3125 143.101562 C 46.0625 168.105469 45.21875 194.375 51.082031 219.042969 C 56.949219 243.703125 69.53125 266.773438 88.144531 285.390625 Z M 202.679688 340.257812 C 182.1875 342.378906 161.714844 340.371094 142.398438 334.574219 C 123.078125 328.773438 104.867188 319.15625 88.914062 306.078125 L 98.328125 294.632812 C 112.683594 306.40625 129.140625 315.078125 146.636719 320.332031 C 164.144531 325.585938 182.667969 327.40625 201.171875 325.492188 Z M 31.726562 243.683594 C 20.984375 214.425781 18.949219 183.378906 24.90625 153.957031 C 30.875 124.539062 44.855469 96.738281 66.144531 73.96875 L 68.84375 76.492188 C 48.035156 98.746094 34.363281 125.917969 28.539062 154.679688 C 22.710938 183.4375 24.710938 213.789062 35.207031 242.40625 Z M 99.675781 46.449219 C 104.472656 43.472656 109.378906 40.761719 114.378906 38.324219 C 119.398438 35.875 124.570312 33.679688 129.832031 31.734375 C 148.128906 25.015625 167.347656 21.640625 186.5625 21.621094 C 205.769531 21.601562 224.984375 24.933594 243.300781 31.605469 L 242.03125 35.09375 C 224.113281 28.5625 205.328125 25.308594 186.5625 25.328125 C 167.796875 25.347656 149.011719 28.648438 131.109375 35.226562 C 125.976562 37.113281 120.929688 39.261719 116.003906 41.664062 C 111.050781 44.074219 106.246094 46.730469 101.621094 49.601562 Z M 265.722656 41.726562 C 274.414062 46.457031 282.652344 51.945312 290.308594 58.121094 C 297.972656 64.292969 305.09375 71.152344 311.566406 78.628906 L 308.761719 81.050781 C 302.4375 73.75 295.476562 67.042969 287.980469 61.011719 C 280.472656 54.96875 272.433594 49.601562 263.949219 44.984375 Z M 325.679688 97.472656 C 328.953125 102.566406 331.9375 107.820312 334.621094 113.207031 C 337.316406 118.609375 339.707031 124.164062 341.789062 129.851562 C 357.28125 172.046875 354.476562 216.566406 337.324219 254.625 C 320.171875 292.679688 288.675781 324.269531 246.808594 340.617188 L 245.457031 337.164062 C 286.386719 321.183594 317.179688 290.304688 333.945312 253.101562 C 350.714844 215.902344 353.453125 172.382812 338.308594 131.136719 C 336.273438 125.589844 333.925781 120.160156 331.300781 114.875 C 328.671875 109.585938 325.746094 104.441406 322.566406 99.488281 Z M 192.613281 351.800781 C 162.4375 352.871094 133.164062 345.65625 107.597656 331.691406 C 82.019531 317.722656 60.136719 296.988281 44.730469 271.023438 L 47.921875 269.136719 C 62.980469 294.519531 84.375 314.785156 109.371094 328.4375 C 134.367188 342.089844 162.984375 349.136719 192.480469 348.09375 Z M 75.648438 332.226562 C 48.195312 311.257812 27.804688 283.429688 15.878906 252.351562 C 3.953125 221.285156 0.484375 186.964844 6.84375 153.015625 L 15.964844 154.726562 C 9.921875 186.984375 13.207031 219.558594 24.53125 249.050781 C 35.847656 278.53125 55.203125 304.933594 81.277344 324.851562 Z M 21.839844 107.34375 C 24.53125 101.757812 27.503906 96.296875 30.75 91.015625 C 33.996094 85.722656 37.527344 80.582031 41.296875 75.648438 C 54.414062 58.476562 70.375 43.886719 88.34375 32.4375 C 106.292969 20.992188 126.238281 12.667969 147.351562 8.015625 L 149.351562 17.0625 C 129.308594 21.480469 110.363281 29.378906 93.324219 40.246094 C 76.296875 51.109375 61.140625 64.949219 48.683594 81.277344 C 45.097656 85.96875 41.757812 90.828125 38.679688 95.847656 C 35.601562 100.859375 32.769531 106.046875 30.207031 111.375 Z M 174.328125 4.132812 C 185.257812 3.390625 196.214844 3.625 207.0625 4.835938 C 217.917969 6.046875 228.671875 8.222656 239.152344 11.355469 L 236.496094 20.261719 C 226.523438 17.285156 216.324219 15.210938 206.039062 14.066406 C 195.738281 12.921875 185.324219 12.6875 174.945312 13.402344 Z M 263.558594 20.589844 C 269.664062 23.414062 275.585938 26.554688 281.289062 29.992188 C 286.984375 33.425781 292.519531 37.195312 297.878906 41.289062 C 337.484375 71.539062 361.34375 114.847656 367.949219 160.636719 C 374.546875 206.425781 363.886719 254.707031 334.445312 294.902344 L 326.964844 289.425781 C 354.90625 251.265625 365.03125 205.421875 358.753906 161.941406 C 352.488281 118.46875 329.835938 77.355469 292.25 48.652344 C 287.230469 44.816406 281.964844 41.242188 276.496094 37.9375 C 271.035156 34.644531 265.414062 31.660156 259.664062 29.003906 Z M 290.429688 337.625 C 262.835938 356.585938 231.167969 367.261719 198.964844 369.410156 C 166.746094 371.5625 133.941406 365.199219 104.085938 350.082031 L 108.261719 341.796875 C 136.609375 356.144531 167.75 362.195312 198.347656 360.152344 C 228.953125 358.105469 259.023438 347.980469 285.191406 329.996094 Z M 57.847656 101.964844 C 60.757812 97.546875 63.855469 93.316406 67.128906 89.308594 C 70.523438 85.140625 74.035156 81.238281 77.636719 77.636719 C 90.511719 64.761719 105.484375 54.367188 121.800781 46.796875 C 138.089844 39.234375 155.691406 34.511719 173.839844 32.984375 L 175.058594 47.800781 C 158.628906 49.179688 142.714844 53.449219 128.011719 60.277344 C 113.339844 67.089844 99.816406 76.492188 88.144531 88.152344 C 84.703125 91.597656 81.523438 95.105469 78.621094 98.664062 C 75.601562 102.367188 72.785156 106.195312 70.226562 110.101562 Z M 57.847656 101.964844 " fill-opacity="1" fill-rule="nonzero"/></g></svg>